TITLE ""
FILE "Step2_Track42.mp3" MP3
  TRACK 01 AUDIO
    TITLE "Step2_Track42_01"
    INDEX 01 00:00:00
  TRACK 02 AUDIO
    TITLE "Step2_Track42_02"
    INDEX 01 00:00:24
  TRACK 03 AUDIO
    TITLE "Step2_Track42_03"
    INDEX 01 00:02:03
  TRACK 04 AUDIO
    TITLE "Step2_Track42_04"
    INDEX 01 00:02:62
  TRACK 05 AUDIO
    TITLE "Step2_Track42_05"
    INDEX 01 00:03:62
  TRACK 06 AUDIO
    TITLE "Step2_Track42_06"
    INDEX 01 00:04:18
  TRACK 07 AUDIO
    TITLE "Step2_Track42_07"
    INDEX 01 00:06:46
  TRACK 08 AUDIO
    TITLE "Step2_Track42_08"
    INDEX 01 00:06:72
  TRACK 09 AUDIO
    TITLE "Step2_Track42_09"
    INDEX 01 00:07:65
  TRACK 10 AUDIO
    TITLE "Step2_Track42_10"
    INDEX 01 00:08:16
  TRACK 11 AUDIO
    TITLE "Step2_Track42_11"
    INDEX 01 00:10:60
  TRACK 12 AUDIO
    TITLE "Step2_Track42_12"
    INDEX 01 00:10:71
  TRACK 13 AUDIO
    TITLE "Step2_Track42_13"
    INDEX 01 00:11:67
  TRACK 14 AUDIO
    TITLE "Step2_Track42_14"
    INDEX 01 00:12:10
  TRACK 15 AUDIO
    TITLE "Step2_Track42_15"
    INDEX 01 00:14:28
  TRACK 16 AUDIO
    TITLE "Step2_Track42_16"
    INDEX 01 00:14:57
  TRACK 17 AUDIO
    TITLE "Step2_Track42_17"
    INDEX 01 00:15:53
  TRACK 18 AUDIO
    TITLE "Step2_Track42_18"
    INDEX 01 00:15:63
  TRACK 19 AUDIO
    TITLE "Step2_Track42_19"
    INDEX 01 00:18:22
  TRACK 20 AUDIO
    TITLE "Step2_Track42_20"
    INDEX 01 00:18:55
  TRACK 21 AUDIO
    TITLE "Step2_Track42_21"
    INDEX 01 00:19:49
  TRACK 22 AUDIO
    TITLE "Step2_Track42_22"
    INDEX 01 00:19:66
  TRACK 23 AUDIO
    TITLE "Step2_Track42_23"
    INDEX 01 00:22:18
  TRACK 24 AUDIO
    TITLE "Step2_Track42_24"
    INDEX 01 00:22:24
  TRACK 25 AUDIO
    TITLE "Step2_Track42_25"
    INDEX 01 00:23:27
  TRACK 26 AUDIO
    TITLE "Step2_Track42_26"
    INDEX 01 00:23:39
  TRACK 27 AUDIO
    TITLE "Step2_Track42_27"
    INDEX 01 00:25:46
  TRACK 28 AUDIO
    TITLE "Step2_Track42_28"
    INDEX 01 00:25:53
  TRACK 29 AUDIO
    TITLE "Step2_Track42_29"
    INDEX 01 00:26:59
  TRACK 30 AUDIO
    TITLE "Step2_Track42_30"
    INDEX 01 00:26:61
  TRACK 31 AUDIO
    TITLE "Step2_Track42_31"
    INDEX 01 00:29:26
  TRACK 32 AUDIO
    TITLE "Step2_Track42_32"
    INDEX 01 00:29:39
  TRACK 33 AUDIO
    TITLE "Step2_Track42_33"
    INDEX 01 00:30:31
  TRACK 34 AUDIO
    TITLE "Step2_Track42_34"
    INDEX 01 00:30:45
  TRACK 35 AUDIO
    TITLE "Step2_Track42_35"
    INDEX 01 00:33:55
  TRACK 36 AUDIO
    TITLE "Step2_Track42_36"
    INDEX 01 00:33:70
  TRACK 37 AUDIO
    TITLE "Step2_Track42_37"
    INDEX 01 00:34:74
  TRACK 38 AUDIO
    TITLE "Step2_Track42_38"
    INDEX 01 00:35:15
  TRACK 39 AUDIO
    TITLE "Step2_Track42_39"
    INDEX 01 00:37:43
  TRACK 40 AUDIO
    TITLE "Step2_Track42_40"
    INDEX 01 00:37:60
  TRACK 41 AUDIO
    TITLE "Step2_Track42_41"
    INDEX 01 00:38:56
  TRACK 42 AUDIO
    TITLE "Step2_Track42_42"
    INDEX 01 00:38:64
  TRACK 43 AUDIO
    TITLE "Step2_Track42_43"
    INDEX 01 00:41:48
